<mxfile host="app.diagrams.net" agent="Mozilla/5.0 (Windows NT 10.0; Win64; x64) AppleWebKit/537.36 (KHTML, like Gecko) Chrome/129.0.0.0 Safari/537.36" version="24.7.17">
  <diagram name="Página-1" id="rYnQTUQXwW-9Dqx8Ory-">
    <mxGraphModel dx="1434" dy="780" grid="1" gridSize="10" guides="1" tooltips="1" connect="1" arrows="1" fold="1" page="1" pageScale="1" pageWidth="827" pageHeight="1169" math="0" shadow="0">
      <root>
        <mxCell id="0" />
        <mxCell id="1" parent="0" />
        <mxCell id="RBWtNeFXfPGwGGAuG9XN-6" value="Inicio" style="ellipse;whiteSpace=wrap;html=1;aspect=fixed;" parent="1" vertex="1">
          <mxGeometry x="40" y="40" width="80" height="80" as="geometry" />
        </mxCell>
        <mxCell id="RBWtNeFXfPGwGGAuG9XN-7" value="Fim" style="ellipse;whiteSpace=wrap;html=1;aspect=fixed;" parent="1" vertex="1">
          <mxGeometry x="840" y="40" width="80" height="80" as="geometry" />
        </mxCell>
        <mxCell id="RBWtNeFXfPGwGGAuG9XN-8" value="Entrada de dados" style="shape=parallelogram;perimeter=parallelogramPerimeter;whiteSpace=wrap;html=1;fixedSize=1;" parent="1" vertex="1">
          <mxGeometry x="140" y="40" width="180" height="80" as="geometry" />
        </mxCell>
        <mxCell id="RBWtNeFXfPGwGGAuG9XN-9" value="Processamento" style="rounded=0;whiteSpace=wrap;html=1;" parent="1" vertex="1">
          <mxGeometry x="354" y="40" width="160" height="80" as="geometry" />
        </mxCell>
        <mxCell id="RBWtNeFXfPGwGGAuG9XN-10" value="Decisões&lt;div&gt;Validar&amp;nbsp;&lt;/div&gt;" style="rhombus;whiteSpace=wrap;html=1;" parent="1" vertex="1">
          <mxGeometry x="550" y="32.5" width="90" height="95" as="geometry" />
        </mxCell>
        <mxCell id="RBWtNeFXfPGwGGAuG9XN-11" value="Olá Mundo!" style="shape=document;whiteSpace=wrap;html=1;boundedLbl=1;" parent="1" vertex="1">
          <mxGeometry x="414" y="400" width="130" height="80" as="geometry" />
        </mxCell>
        <mxCell id="hGEA2O4GZ9VEQr86X0dd-9" style="edgeStyle=orthogonalEdgeStyle;rounded=0;orthogonalLoop=1;jettySize=auto;html=1;exitX=0.5;exitY=1;exitDx=0;exitDy=0;entryX=0.5;entryY=0;entryDx=0;entryDy=0;" edge="1" parent="1" source="hGEA2O4GZ9VEQr86X0dd-7">
          <mxGeometry relative="1" as="geometry">
            <mxPoint x="479" y="400" as="targetPoint" />
          </mxGeometry>
        </mxCell>
        <mxCell id="hGEA2O4GZ9VEQr86X0dd-7" value="Inicio" style="ellipse;whiteSpace=wrap;html=1;aspect=fixed;" vertex="1" parent="1">
          <mxGeometry x="439" y="240" width="80" height="80" as="geometry" />
        </mxCell>
        <mxCell id="hGEA2O4GZ9VEQr86X0dd-11" value="Saída de dados impressão" style="shape=document;whiteSpace=wrap;html=1;boundedLbl=1;" vertex="1" parent="1">
          <mxGeometry x="670" y="40" width="130" height="80" as="geometry" />
        </mxCell>
        <mxCell id="hGEA2O4GZ9VEQr86X0dd-12" value="Fim" style="ellipse;whiteSpace=wrap;html=1;aspect=fixed;" vertex="1" parent="1">
          <mxGeometry x="439" y="520" width="80" height="80" as="geometry" />
        </mxCell>
        <mxCell id="hGEA2O4GZ9VEQr86X0dd-13" style="edgeStyle=orthogonalEdgeStyle;rounded=0;orthogonalLoop=1;jettySize=auto;html=1;exitX=0.5;exitY=0;exitDx=0;exitDy=0;entryX=0.5;entryY=0.825;entryDx=0;entryDy=0;entryPerimeter=0;" edge="1" parent="1" source="hGEA2O4GZ9VEQr86X0dd-12" target="RBWtNeFXfPGwGGAuG9XN-11">
          <mxGeometry relative="1" as="geometry" />
        </mxCell>
      </root>
    </mxGraphModel>
  </diagram>
</mxfile>
